<svg width="32" height="32" viewBox="0 0 32 32" fill="none" xmlns="http://www.w3.org/2000/svg">
<g clip-path="url(#clip0_23_800)">
<g clip-path="url(#clip1_23_800)">
<path d="M31.518 19.8705C29.381 28.442 20.6995 33.6585 12.127 31.521C3.55797 29.384 -1.65853 20.702 0.479474 12.131C2.61547 3.55849 11.297 -1.65851 19.867 0.478493C28.439 2.61549 33.655 11.2985 31.518 19.8705Z" fill="url(#paint0_linear_23_800)"/>
<path d="M23.0504 13.7205C23.3689 11.5915 21.7479 10.447 19.5314 9.68351L20.2504 6.79951L18.4949 6.36201L17.7949 9.17001C17.3334 9.05501 16.8594 8.94651 16.3884 8.83901L17.0934 6.01251L15.3389 5.57501L14.6194 8.45801C14.2374 8.37101 13.8624 8.28501 13.4984 8.19451L13.5004 8.18551L11.0794 7.58101L10.6124 9.45601C10.6124 9.45601 11.9149 9.75451 11.8874 9.77301C12.5984 9.95051 12.7269 10.421 12.7054 10.794L11.8864 14.0795C11.9354 14.092 11.9989 14.11 12.0689 14.138C12.0104 14.1235 11.9479 14.1075 11.8834 14.092L10.7354 18.6945C10.6484 18.9105 10.4279 19.2345 9.93095 19.1115C9.94845 19.137 8.65495 18.793 8.65495 18.793L7.78345 20.8025L10.0679 21.372C10.4929 21.4785 10.9094 21.59 11.3194 21.695L10.5929 24.612L12.3464 25.0495L13.0659 22.1635C13.5449 22.2935 14.0099 22.4135 14.4649 22.5265L13.7479 25.399L15.5034 25.8365L16.2299 22.925C19.2234 23.4915 21.4744 23.263 22.4219 20.5555C23.1854 18.3755 22.3839 17.118 20.8089 16.298C21.9559 16.0335 22.8199 15.279 23.0504 13.7205ZM19.0394 19.345C18.4969 21.525 14.8264 20.3465 13.6364 20.051L14.6004 16.1865C15.7904 16.4835 19.6064 17.0715 19.0394 19.345ZM19.5824 13.689C19.0874 15.672 16.0324 14.6645 15.0414 14.4175L15.9154 10.9125C16.9064 11.1595 20.0979 11.6205 19.5824 13.689Z" fill="white"/>
</g>
</g>
<defs>
<linearGradient id="paint0_linear_23_800" x1="0.000244141" y1="-0.000305176" x2="0.000244141" y2="3200.03" gradientUnits="userSpaceOnUse">
<stop stop-color="#F9AA4B"/>
<stop offset="1" stop-color="#F7931A"/>
</linearGradient>
<clipPath id="clip0_23_800">
<rect width="32" height="32" fill="white"/>
</clipPath>
<clipPath id="clip1_23_800">
<rect width="32" height="32" fill="white"/>
</clipPath>
</defs>
</svg>
