<svg width="240" height="140" viewBox="0 0 240 140" fill="none" xmlns="http://www.w3.org/2000/svg">
<path d="M207.716 33.5617C207.943 32.1181 208.375 30.7141 208.998 29.3922L209.497 28.3329C209.79 27.7122 210.146 27.1232 210.559 26.5753L211.052 25.9219C211.559 25.2487 212.15 24.6425 212.81 24.1177L215.574 21.9187L229.573 11.0299C229.635 10.9818 229.692 10.9278 229.743 10.8685L238.87 0.307122C238.976 0.184461 239.167 0.325436 239.081 0.462697C239.068 0.483607 239.061 0.507802 239.061 0.5325V130C239.061 135.523 234.583 140 229.061 140L9.50992 140C7.59856 140 5.73156 139.424 4.15238 138.347C1.55437 136.576 0 133.635 0 130.49V101.138V66.2615V39.0452C0 38.7991 0.300901 38.6796 0.46973 38.8587L23.0168 61.7774L32.2437 71.2147C34.6817 73.7082 38.2426 74.7516 41.6409 73.968L42.4698 73.7769C45.3268 73.1181 47.7507 71.2387 49.1004 68.6359L50.704 65.5434C51.6391 63.7399 53.1014 62.264 54.8962 61.3122L54.9584 61.2792C59.7383 59.3075 65.2317 61.3271 67.5963 65.9253L69.0503 68.7527L72.8082 78.2191L74.7828 82.4081C75.0317 82.936 75.3263 83.4411 75.6632 83.9176L76.5202 85.1296C78.3247 87.6816 81.2187 89.2431 84.3425 89.3503L88.1801 89.4818C91.7312 89.6036 95.0802 87.8319 96.9776 84.8278L99.2391 81.2472C100.083 79.9118 101.23 78.7952 102.588 77.9888L103.857 77.2355C104.429 76.8956 105.034 76.6137 105.663 76.3941L105.966 76.2881C107.026 75.9173 108.142 75.7279 109.266 75.7279H109.477C110.061 75.7279 110.643 75.779 111.218 75.8806L118.202 77.1152C122.014 77.7891 125.873 76.2022 128.108 73.0413L128.674 72.2403L134.242 62.1163C134.898 60.9236 135.909 59.965 137.135 59.3739C141.236 57.3968 146.053 60.1048 146.495 64.6358L146.661 66.3372C146.871 68.4972 148.038 70.4492 149.842 71.6571C153.189 73.8996 157.723 72.9827 159.936 69.6157L160.667 68.5035L168.131 55.7986L172.541 49.3225C173.648 47.6972 175.209 46.4343 177.029 45.6916L178.1 45.2546C179.575 44.6531 181.172 44.4124 182.758 44.5526L185.869 44.8275C185.943 44.8341 186.016 44.8523 186.085 44.8816C187.572 45.5126 189.149 45.9064 190.759 46.0486L193.691 46.3078C193.873 46.3239 194.057 46.3081 194.234 46.2612L197.724 45.3357L198.436 45.0842C198.9 44.9199 199.352 44.7215 199.787 44.4906L200.054 44.349C200.691 44.0113 201.29 43.6058 201.839 43.1394L203.361 41.8481L203.939 41.235C204.491 40.6494 204.971 39.9993 205.367 39.2987L206.179 37.8622L207.579 34.3977C207.585 34.3823 207.59 34.3663 207.592 34.3499L207.716 33.5617Z" fill="url(#paint0_linear_23_870)"/>
<defs>
<linearGradient id="paint0_linear_23_870" x1="120" y1="-1" x2="120" y2="140" gradientUnits="userSpaceOnUse">
<stop stop-color="#1EAE68"/>
<stop offset="1" stop-color="#1EAE68" stop-opacity="0.23"/>
</linearGradient>
</defs>
</svg>
