<svg width="32" height="32" viewBox="0 0 32 32" fill="none" xmlns="http://www.w3.org/2000/svg">
<g clip-path="url(#clip0_23_832)">
<g clip-path="url(#clip1_23_832)">
<path d="M15.9872 31.9104C24.7672 31.9104 31.8848 24.7928 31.8848 16.0128C31.8848 7.23277 24.7672 0.115173 15.9872 0.115173C7.2072 0.115173 0.0895996 7.23277 0.0895996 16.0128C0.0895996 24.7928 7.2072 31.9104 15.9872 31.9104Z" fill="#335E9F"/>
<path d="M8.92165 25.7664L11.2896 18.0736L8.71045 18.8608L9.39525 16.9664L11.7632 16.2304L15.072 5.34401C15.1424 5.11361 15.36 4.95361 15.6032 4.95361H18.9824C19.3536 4.95361 19.616 5.31201 19.5136 5.66401L16.8256 14.6496L19.2512 13.9648L18.8096 15.7952L16.3072 16.5504L14.56 22.1312H23.456C23.7248 22.1312 23.9168 22.3872 23.8464 22.6432L23.072 25.472C23.0208 25.6448 22.8672 25.7664 22.6816 25.7664H8.92165Z" fill="white"/>
</g>
</g>
<defs>
<clipPath id="clip0_23_832">
<rect width="32" height="32" fill="white"/>
</clipPath>
<clipPath id="clip1_23_832">
<rect width="32" height="32" fill="white"/>
</clipPath>
</defs>
</svg>
