<svg width="240" height="144" viewBox="0 0 240 144" fill="none" xmlns="http://www.w3.org/2000/svg">
<path d="M26.5 35L26.0175 32.879C25.8096 31.9655 25.4582 31.0907 24.9761 30.2874C24.744 29.9006 24.4827 29.5321 24.1944 29.1851L23.0634 27.8238C22.4363 27.0689 21.7015 26.4105 20.8826 25.8697L17.1526 23.4062L2.75542 12.726C2.29504 12.3845 1.87799 11.9882 1.51347 11.5458L-7.9991 0.00108891C-7.99947 0.000654994 -7.99915 0 -7.9986 0C-7.99823 0 -7.99792 0.000297814 -7.99792 0.000665187V134C-7.99792 139.523 -3.52077 144 2.00208 144L237.992 144C239.928 144 241.824 143.437 243.447 142.382C246.284 140.537 248 137.379 248 133.995V104.311V68.6925V38.4825C248 37.7803 247.243 37.3386 246.632 37.6841C246.541 37.7352 246.46 37.8013 246.392 37.8795L236.251 49.5L214.053 71.8084C212.317 73.553 209.998 74.5961 207.541 74.7382L204.032 74.9412C200.166 75.1647 196.519 73.1364 194.669 69.7345L193.655 67.8701C192.685 66.0862 191.195 64.6397 189.383 63.7232L189.148 63.6041L187.088 62.794C182.945 61.1641 178.223 62.4696 175.506 65.9964L173.208 68.9791L169.192 79.0491L167.673 82.8575C167.349 83.6716 166.918 84.4396 166.394 85.1416L165.178 86.768C163.571 88.9161 161.17 90.3289 158.512 90.6891L153.879 91.317C150.313 91.8003 146.762 90.3305 144.582 87.4682L141.598 83.5529C140.778 82.4769 139.749 81.5785 138.572 80.9119L136.707 79.8561C136.146 79.5381 135.555 79.2752 134.943 79.0711L133.943 78.738C133.191 78.4871 132.411 78.3267 131.621 78.26L130.377 78.1552C129.487 78.0801 128.59 78.1248 127.711 78.288L120.939 79.5461C117.545 80.1764 114.066 79.0121 111.736 76.4658L110.949 75.6061C110.457 75.0693 110.026 74.4805 109.663 73.8501L104.296 64.5442C103.562 63.2706 102.45 62.2566 101.114 61.6424C96.6943 59.6101 91.5868 62.5274 91.0919 67.3667L91.0189 68.0812C90.7543 70.6682 89.1451 72.9239 86.7851 74.016C83.6186 75.4813 79.8583 74.5237 77.7785 71.7221L76.5 70L68.5 57.4981L64.3349 51.5988C63.1411 49.908 61.4521 48.6293 59.5009 47.939L56.4968 46.8763C55.4257 46.4974 54.2978 46.3038 53.1617 46.3038H52.6066C52.0255 46.3038 51.4455 46.3544 50.8732 46.4551L48.8422 46.8126L46.2117 47.3287L42.5716 47.6939C41.6563 47.7857 40.7328 47.7508 39.8271 47.5901L36.9223 47.0749C36.6474 47.0261 36.3941 46.8941 36.1967 46.6967C36.0669 46.5669 35.9122 46.4647 35.742 46.3961L35.1723 46.1668C34.8968 46.0559 34.6333 45.9172 34.3859 45.7528L33.3316 45.0525C32.7786 44.6851 32.2635 44.2635 31.794 43.794L31 43L29.6469 41.5151C29.033 40.8415 28.5142 40.0872 28.1047 39.2731L27.6371 38.3435C27.3549 37.7824 27.1261 37.196 26.9539 36.5919L26.5 35Z" fill="url(#paint0_linear_23_873)"/>
<defs>
<linearGradient id="paint0_linear_23_873" x1="118.245" y1="-0.503497" x2="118.245" y2="143.497" gradientUnits="userSpaceOnUse">
<stop stop-color="#BF3739"/>
<stop offset="1" stop-color="#BF3739" stop-opacity="0.23"/>
</linearGradient>
</defs>
</svg>
