<svg width="32" height="32" viewBox="0 0 32 32" fill="none" xmlns="http://www.w3.org/2000/svg">
<g clip-path="url(#clip0_23_842)">
<g clip-path="url(#clip1_23_842)">
<g clip-path="url(#clip2_23_842)">
<mask id="mask0_23_842" style="mask-type:luminance" maskUnits="userSpaceOnUse" x="0" y="0" width="32" height="32">
<path d="M32 0H0V32H32V0Z" fill="white"/>
</mask>
<g mask="url(#mask0_23_842)">
<path d="M15.9878 31.9808C24.8276 31.9808 31.9878 24.8128 31.9878 15.9744C31.9878 7.13602 24.8276 -0.0319824 15.9878 -0.0319824C7.14795 -0.0319824 -0.012207 7.13602 -0.012207 15.9744C-0.012207 24.8128 7.15408 31.9808 15.9878 31.9808Z" fill="#FF060A"/>
<path d="M24.987 13.1008C24.1042 12.2816 22.8781 11.0336 21.885 10.1505L21.8238 10.112C21.7256 10.0352 21.6153 9.97124 21.4988 9.92645C19.0958 9.47845 7.91415 7.38562 7.69962 7.41124C7.6383 7.41762 7.57702 7.44324 7.52796 7.47524L7.47277 7.52004C7.40536 7.59045 7.35017 7.67362 7.31952 7.76962L7.30725 7.80804V8.01924V8.05124C8.56398 11.5585 13.5356 23.04 14.5165 25.7408C14.5777 25.9265 14.6881 26.272 14.8965 26.2912H14.9456C15.0559 26.2912 15.5341 25.6576 15.5341 25.6576C15.5341 25.6576 24.0735 15.3025 24.9379 14.2016C25.0482 14.0672 25.1464 13.92 25.2322 13.7665C25.2567 13.6448 25.2444 13.5232 25.2015 13.408C25.1586 13.2928 25.0789 13.184 24.987 13.1008ZM17.7165 14.3105L21.3579 11.2896L23.4973 13.2608L17.7165 14.3105ZM16.3004 14.112L10.0291 8.96645L20.1808 10.8416L16.3004 14.112ZM16.8644 15.456L23.2828 14.4192L15.9448 23.2705L16.8644 15.456ZM9.17702 9.48483L15.7793 15.0848L14.823 23.2768L9.17702 9.48483Z" fill="white"/>
</g>
</g>
</g>
</g>
<defs>
<clipPath id="clip0_23_842">
<rect width="32" height="32" fill="white"/>
</clipPath>
<clipPath id="clip1_23_842">
<rect width="32" height="32" fill="white"/>
</clipPath>
<clipPath id="clip2_23_842">
<rect width="32" height="32" fill="white"/>
</clipPath>
</defs>
</svg>
