<svg width="34" height="21" viewBox="0 0 34 21" fill="none" xmlns="http://www.w3.org/2000/svg">
<rect x="0.280029" y="0.630005" width="33.3" height="20" rx="4" fill="#1EAE68"/>
<path d="M5.25203 14.63V6.398H6.59603V9.842H10.772V6.398H12.116V14.63H10.772V10.994H6.59603V14.63H5.25203ZM17.7965 14.774C16.9485 14.774 16.2125 14.618 15.5885 14.306C14.9725 13.994 14.4965 13.522 14.1605 12.89C13.8325 12.258 13.6685 11.466 13.6685 10.514C13.6685 9.554 13.8325 8.762 14.1605 8.138C14.4965 7.506 14.9725 7.034 15.5885 6.722C16.2125 6.41 16.9485 6.254 17.7965 6.254C18.6605 6.254 19.4005 6.41 20.0165 6.722C20.6325 7.034 21.1045 7.506 21.4325 8.138C21.7685 8.762 21.9365 9.554 21.9365 10.514C21.9365 11.466 21.7685 12.258 21.4325 12.89C21.1045 13.522 20.6325 13.994 20.0165 14.306C19.4005 14.618 18.6605 14.774 17.7965 14.774ZM17.7965 13.634C18.2365 13.634 18.6245 13.574 18.9605 13.454C19.3045 13.334 19.5925 13.15 19.8245 12.902C20.0645 12.654 20.2445 12.342 20.3645 11.966C20.4925 11.59 20.5565 11.154 20.5565 10.658V10.394C20.5565 9.882 20.4925 9.438 20.3645 9.062C20.2445 8.686 20.0645 8.374 19.8245 8.126C19.5925 7.878 19.3045 7.694 18.9605 7.574C18.6245 7.454 18.2365 7.394 17.7965 7.394C17.3645 7.394 16.9765 7.454 16.6325 7.574C16.2965 7.694 16.0085 7.878 15.7685 8.126C15.5365 8.374 15.3605 8.686 15.2405 9.062C15.1205 9.438 15.0605 9.882 15.0605 10.394V10.658C15.0605 11.154 15.1205 11.59 15.2405 11.966C15.3605 12.342 15.5365 12.654 15.7685 12.902C16.0085 13.15 16.2965 13.334 16.6325 13.454C16.9765 13.574 17.3645 13.634 17.7965 13.634ZM25.2094 14.63V7.55H22.4854V6.398H29.3014V7.55H26.5534V14.63H25.2094Z" fill="white"/>
</svg>
