<svg width="37" height="26" viewBox="0 0 37 26" fill="none" xmlns="http://www.w3.org/2000/svg">
<g clip-path="url(#clip0_23_379)">
<path d="M33.59 6.5H3.58997C2.20925 6.5 1.08997 7.61929 1.08997 9V19C1.08997 20.3807 2.20925 21.5 3.58997 21.5H33.59C34.9707 21.5 36.09 20.3807 36.09 19V9C36.09 7.61929 34.9707 6.5 33.59 6.5Z" stroke="#1EAE68"/>
<path d="M6.22844 13.1875V18H4.65063V9.89466H6.1651V11.2139H6.26537C6.45182 10.7847 6.74381 10.4399 7.14134 10.1796C7.54239 9.91928 8.0472 9.78912 8.65581 9.78912C9.20813 9.78912 9.69184 9.90521 10.107 10.1374C10.5221 10.3661 10.844 10.7073 11.0727 11.1611C11.3013 11.6149 11.4157 12.176 11.4157 12.8445V18H9.83785V13.0344C9.83785 12.4469 9.68481 11.9878 9.37876 11.6571C9.0727 11.3229 8.65229 11.1558 8.11756 11.1558C7.7517 11.1558 7.4263 11.235 7.14134 11.3933C6.85991 11.5516 6.63651 11.7838 6.47117 12.0899C6.30934 12.3924 6.22844 12.7583 6.22844 13.1875ZM17.025 18.1636C16.2265 18.1636 15.5387 17.993 14.9618 17.6517C14.3883 17.307 13.9451 16.8232 13.632 16.2006C13.3224 15.5744 13.1676 14.8409 13.1676 14.0001C13.1676 13.1699 13.3224 12.4381 13.632 11.8049C13.9451 11.1717 14.3813 10.6774 14.9406 10.3221C15.5035 9.96678 16.1614 9.78912 16.9142 9.78912C17.3715 9.78912 17.8148 9.86476 18.244 10.016C18.6732 10.1673 19.0584 10.4048 19.3996 10.7284C19.7409 11.0521 20.01 11.4725 20.207 11.9896C20.404 12.5032 20.5025 13.1276 20.5025 13.8629V14.4223H14.0594V13.2402H18.9564C18.9564 12.8251 18.8719 12.4575 18.7031 12.1373C18.5342 11.8137 18.2968 11.5586 17.9907 11.3722C17.6882 11.1857 17.3328 11.0925 16.9248 11.0925C16.4815 11.0925 16.0945 11.2016 15.7638 11.4197C15.4367 11.6343 15.1834 11.9157 15.004 12.264C14.8281 12.6088 14.7401 12.9834 14.7401 13.388V14.3114C14.7401 14.8532 14.8351 15.3141 15.0251 15.694C15.2186 16.0739 15.4877 16.3642 15.8324 16.5647C16.1772 16.7617 16.58 16.8602 17.0409 16.8602C17.3399 16.8602 17.6125 16.818 17.8588 16.7335C18.105 16.6456 18.3179 16.5154 18.4973 16.343C18.6767 16.1707 18.8139 15.9578 18.9089 15.7045L20.4023 15.9737C20.2826 16.4134 20.068 16.7986 19.7585 17.1293C19.4524 17.4565 19.0672 17.7115 18.6028 17.8945C18.142 18.0739 17.616 18.1636 17.025 18.1636ZM23.9958 18L21.6107 9.89466H23.2412L24.8296 15.847H24.9087L26.5024 9.89466H28.1329L29.716 15.8206H29.7952L31.373 9.89466H33.0035L30.6236 18H29.0142L27.3678 12.1479H27.2464L25.6 18H23.9958Z" fill="#1EAE68"/>
</g>
<defs>
<clipPath id="clip0_23_379">
<rect width="36" height="26" fill="white" transform="translate(0.589966)"/>
</clipPath>
</defs>
</svg>
