<svg width="569" height="543" viewBox="0 0 569 543" fill="none" xmlns="http://www.w3.org/2000/svg">
<g clip-path="url(#clip0_23_400)">
<g filter="url(#filter0_f_23_400)">
<path d="M336.5 517C430.112 517 506 486.108 506 448C506 409.892 430.112 379 336.5 379C242.888 379 167 409.892 167 448C167 486.108 242.888 517 336.5 517Z" fill="#1EAE68" fill-opacity="0.47"/>
</g>
<path d="M567.57 448.908C567.57 461.643 561.2 473.825 549.58 484.955C537.958 496.086 521.115 506.133 500.262 514.582C458.558 531.477 400.91 541.938 337.209 541.938C273.508 541.938 215.86 531.477 174.156 514.582C153.303 506.133 136.46 496.086 124.838 484.955C113.218 473.825 106.849 461.643 106.849 448.908C106.849 436.172 113.218 423.99 124.838 412.86C136.46 401.729 153.303 391.682 174.156 383.233C215.86 366.338 273.508 355.877 337.209 355.877C400.91 355.877 458.558 366.338 500.262 383.233C521.115 391.682 537.958 401.729 549.58 412.86C561.2 423.99 567.57 436.172 567.57 448.908Z" stroke="#141414" stroke-width="0.984446"/>
<path d="M337.209 447.923C357.598 447.923 374.126 440.871 374.126 432.172C374.126 423.473 357.598 416.421 337.209 416.421C316.821 416.421 300.292 423.473 300.292 432.172C300.292 440.871 316.821 447.923 337.209 447.923Z" fill="#141414"/>
<path d="M234.334 454.433C228.01 448.693 224.49 442.324 224.49 435.618C224.49 410.336 274.516 389.841 336.225 389.841C397.934 389.841 447.959 410.336 447.959 435.618C447.959 460.899 397.934 481.394 336.225 481.394C320.104 481.394 304.781 479.995 290.94 477.479" stroke="#141414" stroke-width="0.984446"/>
<path d="M508.995 439.555C508.995 401.768 431.643 371.136 336.225 371.136C240.806 371.136 164.931 401.768 164.931 439.555C164.931 477.342 248.19 507.482 343.608 507.482" stroke="#141414" stroke-width="0.984446"/>
<path d="M361.33 38.3937C234.827 31.5023 26.6173 83.0921 130.477 98.4446C243.691 115.18 322.939 125.493 350.994 128.962C458.462 142.253 588.243 172.278 271.254 209.195C-39 245.328 247.625 276.629 300.785 276.629C420.051 276.629 595.626 306.099 422.366 328.805C350.994 338.159 332.782 381.965 332.782 418.882" stroke="#131313" stroke-width="1.96889" stroke-dasharray="9.84 9.84"/>
<path d="M399.721 0.984467C399.721 0.984467 401.382 16.725 406.12 20.6734C410.858 24.6218 420.887 24.6112 420.887 24.6112C420.887 24.6112 409.074 23.6267 405.136 26.0879C401.198 28.549 400.452 44.3001 400.452 44.3001C400.452 44.3001 402.675 32.3994 396.768 28.0567C390.861 23.7141 381.017 23.1345 381.017 23.1345C381.017 23.1345 391.354 23.6267 396.768 19.6889C402.183 15.7512 399.721 0.984467 399.721 0.984467Z" fill="#F3DF72"/>
<path d="M524.409 172.605C524.409 172.605 526.069 188.345 530.807 192.294C535.546 196.242 545.574 196.231 545.574 196.231C545.574 196.231 533.761 195.247 529.823 197.708C525.885 200.169 525.139 215.92 525.139 215.92C525.139 215.92 527.362 204.02 521.455 199.677C515.549 195.334 505.704 194.755 505.704 194.755C505.704 194.755 516.041 195.247 521.455 191.309C526.87 187.371 524.409 172.605 524.409 172.605Z" fill="#F3DF72"/>
<path d="M106.586 310.688C106.586 310.688 108.247 326.429 112.985 330.377C117.723 334.326 127.752 334.315 127.752 334.315C127.752 334.315 115.939 333.331 112.001 335.792C108.063 338.253 107.317 354.004 107.317 354.004C107.317 354.004 109.54 342.103 103.633 337.761C97.7264 333.418 87.882 332.838 87.882 332.838C87.882 332.838 98.2186 333.331 103.633 329.393C109.048 325.455 106.586 310.688 106.586 310.688Z" fill="#F3DF72"/>
<path d="M400.213 0.984467C400.12 5.91674 400.877 14.9103 405.136 20.1812C408.386 24.2031 413.994 24.6112 421.378 24.6112M400.705 44.7923C400.609 40.4766 400.287 31.192 404.644 26.5801C407.968 23.0609 413.826 24.6112 421.38 24.6112M400.707 44.7923C400.801 40.4766 401.124 32.1765 396.768 27.5645C393.322 24.6112 387.416 24.119 380.032 23.1345M399.721 0.984467C399.817 5.3002 401.126 15.077 396.77 19.6889C393.446 23.2081 387.588 23.1345 380.034 23.1345" stroke="black" stroke-width="1.47667"/>
<path d="M524.9 172.605C524.807 177.537 525.564 186.53 529.823 191.801C533.073 195.823 538.681 196.231 546.065 196.231M525.392 216.412C525.297 212.097 524.975 202.812 529.331 198.2C532.655 194.681 538.513 196.231 546.067 196.231M525.394 216.412C525.489 212.097 525.811 203.797 521.455 199.185C518.01 196.231 512.103 195.739 504.72 194.755M524.409 172.605C524.504 176.92 525.813 186.697 521.457 191.309C518.133 194.828 512.275 194.755 504.722 194.755" stroke="black" stroke-width="1.47667"/>
<path d="M107.078 310.688C106.985 315.621 107.742 324.614 112.001 329.885C115.251 333.907 120.859 334.315 128.243 334.315M107.57 354.496C107.474 350.18 107.152 340.896 111.509 336.284C114.833 332.765 120.691 334.315 128.245 334.315M107.572 354.496C107.666 350.18 107.989 341.88 103.633 337.268C100.187 334.315 94.2808 333.823 86.8975 332.838M106.586 310.688C106.682 315.004 107.991 324.781 103.635 329.393C100.311 332.912 94.4531 332.838 86.8994 332.838" stroke="black" stroke-width="1.47667"/>
<path d="M297.339 290.412C297.339 290.412 297.339 307.147 303.738 310.101C310.137 313.054 312.106 313.546 312.106 313.546C312.106 313.546 307.676 314.531 302.261 316.007C296.847 317.484 297.339 333.727 297.339 333.727C297.339 333.727 298.816 320.35 292.909 316.007C287.002 311.665 278.635 312.562 278.635 312.562C278.635 312.562 288.971 313.054 294.386 309.116C299.8 305.178 297.339 290.412 297.339 290.412Z" fill="#F3DF72"/>
<path d="M296.846 290.412C296.753 295.344 297.34 305.671 301.769 309.116C305.707 312.18 309.15 314.038 316.536 314.038C308.981 314.038 304.109 313.965 300.785 317.484C296.428 322.096 297.29 326.95 297.385 331.266M297.385 334.22C297.48 329.904 297.757 320.619 293.401 316.007C289.956 313.054 286.51 313.054 279.127 312.069C286.68 312.069 291.061 312.636 294.386 309.116C298.742 304.504 296.941 294.235 296.846 289.919" stroke="black" stroke-width="1.47667"/>
<path d="M178.221 136.838C178.221 136.838 178.71 155.71 184.091 160.196C189.473 164.683 199.879 162.926 199.879 162.926C199.879 162.926 187.616 165.051 183.143 167.848C178.671 170.645 176.252 183.599 176.252 183.599C176.252 183.599 178.039 173.275 171.33 168.34C164.621 163.405 151.641 164.403 151.641 164.403C151.641 164.403 165.672 163.955 171.822 159.48C177.972 155.006 178.221 136.838 178.221 136.838Z" fill="#F3DF72"/>
<path d="M176.251 189.506C176.143 184.56 177.179 174.61 182.158 169.325C185.957 165.292 191.245 163.208 199.878 163.208C191.438 163.208 188.557 163.208 183.142 159.259C177.657 154.558 178.114 141.999 178.22 136.346C178.329 141.292 177.784 153.21 172.805 158.496C169.006 162.529 159.29 164.403 150.656 164.403C159.094 165.531 167.884 164.956 171.822 168.34C176.801 173.626 176.36 184.068 176.251 189.014" stroke="black" stroke-width="1.47667"/>
<path d="M330.806 83.8726C332.109 113.72 314.296 138.521 291.271 139.526C268.247 140.531 248.342 117.375 247.04 87.5266C245.738 57.6784 263.551 32.8776 286.575 31.8732C309.6 30.8689 329.505 54.0245 330.806 83.8726Z" fill="#F25F69" stroke="black" stroke-width="0.984446"/>
<path d="M331.254 84.1538C331.904 99.0658 328.293 112.728 321.954 122.76C315.613 132.795 306.576 139.159 296.363 139.604C286.151 140.05 276.593 134.497 269.403 125.052C262.214 115.61 257.428 102.314 256.777 87.4025C256.126 72.4907 259.737 58.8287 266.077 48.7961C272.417 38.7617 281.455 32.3972 291.668 31.9518C301.88 31.5063 311.437 37.0596 318.628 46.5039C325.816 55.9463 330.603 69.2419 331.254 84.1538Z" fill="url(#paint0_linear_23_400)" stroke="black" stroke-width="0.984446"/>
<path d="M303.108 78.4196C302.382 78.0917 301.505 78.1871 300.77 78.6739L295.675 82.5841L292.203 85.0975L287.206 88.9972C286.568 89.4735 285.691 89.5687 284.868 89.2515L280.395 87.0936C279.669 86.7656 279.094 86.0145 278.997 85.1099L278.45 80.0841C278.363 79.28 278.664 78.4335 279.39 77.8462L283.305 74.8778C283.943 74.4015 284.82 74.3062 285.643 74.6235L290.116 76.7814C290.842 77.1092 291.416 77.8604 291.514 78.765L291.875 82.082L295.337 79.4681L294.965 76.0506C294.877 75.2464 294.401 74.4848 293.567 74.0669L285.259 70.1902C284.533 69.8623 283.657 69.9576 282.921 70.4444L275.458 76.1378C274.722 76.6247 274.42 77.4712 274.508 78.2754L275.536 87.7238C275.622 88.5279 276.1 89.2897 276.934 89.7075L285.338 93.5736C286.063 93.9015 286.94 93.8062 287.676 93.3194L292.684 89.5202L296.145 86.9063L301.154 83.1071C301.792 82.6309 302.669 82.5356 303.492 82.8529L307.953 84.9103C308.679 85.2382 309.254 85.9893 309.352 86.8939L309.899 91.9197C309.986 92.7238 309.684 93.5703 308.96 94.1576L305.141 97.1155C304.503 97.5917 303.626 97.6871 302.803 97.3697L298.341 95.3124C297.616 94.9845 297.041 94.2334 296.942 93.3286L296.593 90.1122L293.132 92.7261L293.492 96.0432C293.58 96.8473 294.057 97.609 294.891 98.0268L303.295 101.893C304.021 102.221 304.898 102.125 305.633 101.639L313.01 96.0563C313.648 95.5801 314.048 94.723 313.95 93.8184L312.911 84.2694C312.824 83.4653 312.346 82.7035 311.512 82.2857L303.108 78.4196Z" fill="#E4E4E4"/>
<path d="M304.585 77.3919C303.859 77.0641 302.982 77.1594 302.247 77.6462L297.152 81.5565L293.68 84.0699L288.683 87.9696C288.045 88.4457 287.168 88.5411 286.345 88.2238L281.871 86.0659C281.146 85.738 280.571 84.9869 280.474 84.0822L279.926 79.0565C279.84 78.2523 280.141 77.4059 280.866 76.8184L284.781 73.85C285.419 73.3739 286.297 73.2785 287.12 73.5958L291.593 75.7537C292.318 76.0816 292.892 76.8327 292.991 77.7373L293.352 81.0544L296.813 78.4405L296.441 75.0229C296.354 74.2188 295.877 73.4571 295.043 73.0393L286.736 69.1625C286.01 68.8346 285.134 68.93 284.398 69.4168L276.934 75.1102C276.199 75.597 275.897 76.4436 275.984 77.2477L277.012 86.6961C277.099 87.5003 277.576 88.262 278.41 88.6798L286.814 92.546C287.54 92.8739 288.417 92.7785 289.152 92.2917L294.16 88.4925L297.622 85.8786L302.63 82.0794C303.268 81.6032 304.146 81.5079 304.969 81.8252L309.43 83.8825C310.156 84.2105 310.73 84.9616 310.829 85.8663L311.375 90.892C311.463 91.6962 311.161 92.5426 310.436 93.13L306.617 96.0878C305.98 96.5641 305.102 96.6594 304.279 96.3421L299.818 94.2847C299.092 93.9568 298.517 93.2056 298.419 92.301L298.07 89.0845L294.608 91.6985L294.969 95.0154C295.056 95.8195 295.534 96.5813 296.367 96.9991L304.772 100.865C305.497 101.193 306.374 101.098 307.11 100.611L314.486 95.0286C315.125 94.5525 315.525 93.6954 315.426 92.7907L314.388 83.2418C314.3 82.4377 313.823 81.6759 312.989 81.258L304.585 77.3919Z" fill="white"/>
<path d="M366.428 249.105C357.661 276.629 368.01 304.273 389.234 311.033C410.458 317.793 434.888 301.227 443.654 273.703C452.421 246.179 442.072 218.535 420.849 211.776C399.624 205.016 375.194 221.581 366.428 249.105Z" fill="#4D62E6" stroke="black" stroke-width="0.984446"/>
<path d="M365.939 249.254C361.559 263.005 361.473 276.666 364.849 287.631C368.227 298.596 375.049 306.818 384.461 309.817C393.874 312.815 404.195 310.052 413.292 303.06C422.388 296.068 430.219 284.873 434.598 271.122C438.978 257.373 439.065 243.711 435.688 232.747C432.31 221.78 425.488 213.558 416.076 210.559C406.664 207.562 396.343 210.324 387.245 217.317C378.149 224.308 370.319 235.503 365.939 249.254Z" fill="url(#paint1_linear_23_400)" stroke="black" stroke-width="0.984446"/>
<path d="M414.287 267.12L398.536 272.534C398.536 272.534 386.213 257.016 386.181 257.505C385.854 256.569 392.844 284.605 393.336 285.59L414.287 267.12Z" fill="#DCDCDC"/>
<path d="M408.939 233.669H407.462L387.654 255.535L397.991 269.317L415.338 264.187L408.939 233.669Z" fill="#DCDCDC"/>
<path d="M412.519 267.769C412.454 267.746 396.913 272.159 396.695 272.176C396.659 272.137 386.755 259.737 386.681 259.725C386.702 259.789 392.963 284.635 392.974 284.638C392.984 284.641 412.519 267.769 412.519 267.769Z" fill="#F3F3F3"/>
<path d="M407.321 233.627L387.14 254.792L396.984 268.081L413.339 263.484L407.321 233.627Z" fill="#F3F3F3"/>
<path d="M249 243.989C253.012 269.267 240.264 292.076 220.801 295.167C201.34 298.256 182.153 280.516 178.14 255.238C174.127 229.962 186.877 207.151 206.339 204.062C225.8 200.972 244.987 218.712 249 243.989Z" fill="#23917A" stroke="black" stroke-width="0.984446"/>
<path d="M249.405 244.186C251.41 256.813 249.665 268.786 245.25 277.936C240.834 287.086 233.771 293.368 225.145 294.737C216.517 296.107 207.857 292.322 200.823 284.988C193.791 277.657 188.424 266.812 186.42 254.185C184.415 241.559 186.159 229.584 190.575 220.435C194.992 211.284 202.054 205.003 210.681 203.633C219.308 202.263 227.968 206.05 235.002 213.382C242.034 220.714 247.401 231.56 249.405 244.186Z" fill="url(#paint2_linear_23_400)" stroke="black" stroke-width="0.984446"/>
<path fill-rule="evenodd" clip-rule="evenodd" d="M211.212 231.012L213.881 228.283L215.779 227.238L226.212 234.03L229.878 236.663L233.266 257.973L231.146 260.866L222.885 269.752L220.734 270.89L217.35 269.123L208.047 264.288L204.662 262.522L201.273 241.212L203.943 238.482L211.212 231.012ZM208.38 244.221L210.283 256.191L219.25 260.901L226.314 253.642L224.411 241.672L215.443 236.962L208.38 244.221Z" fill="#DCDCDC"/>
<path fill-rule="evenodd" clip-rule="evenodd" d="M213.25 230.049L215.919 227.319L219.304 229.087L228.531 233.933L231.916 235.7L235.305 257.009L232.635 259.739L225.442 267.197L222.772 269.927L219.388 268.16L210.085 263.326L206.7 261.559L203.312 240.249L205.98 237.519L213.25 230.049ZM210.08 243.782L212.038 256.099L221.266 260.945L228.535 253.475L226.576 241.159L217.349 236.311L210.08 243.782Z" fill="white"/>
<path d="M64.332 130.289C64.332 130.289 71.0254 141.778 76.0157 143.172C81.006 144.565 88.6866 141.104 88.6866 141.104C88.6866 141.104 79.2957 144.418 77.1261 147.66C74.9564 150.901 79.8091 163.228 79.8091 163.228C79.8091 163.228 77.4139 153.343 71.3924 152.05C65.371 150.757 57.6282 153.703 57.6282 153.703C57.6282 153.703 65.718 150.52 68.5107 145.638C71.3033 140.756 64.332 130.289 64.332 130.289Z" fill="#F3DF72"/>
<path d="M438.394 356.921C438.394 356.921 442.05 369.705 446.543 372.286C451.036 374.866 459.333 373.403 459.333 373.403C459.333 373.403 449.415 374.301 446.514 376.909C443.612 379.516 445.278 392.658 445.278 392.658C445.278 392.658 445.392 382.488 439.875 379.751C434.358 377.014 426.128 377.961 426.128 377.961C426.128 377.961 434.753 376.87 438.662 372.827C442.571 368.784 438.394 356.921 438.394 356.921Z" fill="#F3DF72"/>
<path d="M65.4627 129.29C67.0904 133.101 70.7678 139.732 75.8462 142.304C79.7213 144.266 84.1592 142.647 89.8173 140.104M80.9268 162.687C79.3673 159.413 75.9232 152.41 77.6727 147.376C79.0081 143.535 84.0302 142.705 89.8188 140.104M80.9283 162.687C79.5144 159.347 76.9034 152.876 71.9772 150.843C68.32 149.766 63.6246 151.423 57.6282 153.212M65.0863 129.459C66.6458 132.733 71.0161 139.773 69.2665 144.807C67.9311 148.649 63.4176 150.61 57.6297 153.211" stroke="black" stroke-width="1.24051"/>
<path d="M438.801 356.85C439.439 360.945 441.369 368.277 445.657 372.021C448.929 374.878 453.629 374.403 459.74 373.332M445.559 393.028C444.854 389.471 443.242 381.835 446.178 377.387C448.418 373.993 453.49 374.427 459.741 373.332M445.56 393.028C445.013 389.443 444.077 382.528 439.804 379.344C436.524 377.399 431.565 377.848 425.313 378.104M438.394 356.921C439.099 360.479 441.6 368.379 438.664 372.827C436.423 376.221 431.565 377.009 425.315 378.104" stroke="black" stroke-width="1.24051"/>
</g>
<defs>
<filter id="filter0_f_23_400" x="120.1" y="332.1" width="432.8" height="231.8" filterUnits="userSpaceOnUse" color-interpolation-filters="sRGB">
<feFlood flood-opacity="0" result="BackgroundImageFix"/>
<feBlend mode="normal" in="SourceGraphic" in2="BackgroundImageFix" result="shape"/>
<feGaussianBlur stdDeviation="23.45" result="effect1_foregroundBlur_23_400"/>
</filter>
<linearGradient id="paint0_linear_23_400" x1="291.646" y1="31.46" x2="296.385" y2="140.097" gradientUnits="userSpaceOnUse">
<stop stop-color="#F87B84"/>
<stop offset="1" stop-color="#FFD8BA"/>
</linearGradient>
<linearGradient id="paint1_linear_23_400" x1="440.188" y1="225.396" x2="371.946" y2="296.161" gradientUnits="userSpaceOnUse">
<stop stop-color="#5E74FB"/>
<stop offset="0.574544" stop-color="#6AB5E6"/>
<stop offset="1" stop-color="#BEDBD6"/>
</linearGradient>
<linearGradient id="paint2_linear_23_400" x1="187.56" y1="213.368" x2="237.942" y2="284.491" gradientUnits="userSpaceOnUse">
<stop stop-color="#29BC9F"/>
<stop offset="0.574544" stop-color="#7ACEBF"/>
<stop offset="1" stop-color="#CFDDDB"/>
</linearGradient>
<clipPath id="clip0_23_400">
<rect width="569" height="543" fill="white"/>
</clipPath>
</defs>
</svg>
