<svg width="30" height="30" viewBox="0 0 30 30" fill="none" xmlns="http://www.w3.org/2000/svg">
<path d="M3.125 0.75C0.125004 2.3125 -0.124996 3.75 0.250004 15.875C0.562504 25.125 0.750004 27.25 1.625 28.1875C2.625 29.25 3.8125 29.375 15 29.375C26.125 29.375 27.375 29.25 28.3125 28.25C29.25 27.25 29.375 25.375 29.375 14.875C29.375 -0.875 30.5 0.375 15.6875 0.125C7.625 0 4.25 0.1875 3.125 0.75ZM15.875 5.4375C18.3125 6.875 20.0625 8.3125 20.1875 9.0625C20.4375 10.1875 20.4375 10.1875 20.5625 8.9375C20.625 7.8125 19.8125 7.0625 17 5.5L13.4375 3.4375L15.8125 3.25C17.375 3.125 19 3.5 20.8125 4.5L23.4375 5.9375L23.625 10.875C23.8125 15.75 23.25 17.5 21.5 17.5C20.875 17.5 20.625 16.5625 20.625 14.1875C20.625 11.1875 20.5 10.8125 18.9375 10.1875C17.9375 9.8125 15.9375 8.6875 14.375 7.75L11.5625 6.125L7.8125 8.3125C5.8125 9.5625 4 10.5 3.875 10.375C3.3125 9.75 6.4375 5.9375 8.5625 4.6875C9.875 3.875 11.125 3.1875 11.3125 3.1875C11.5625 3.125 13.5625 4.1875 15.875 5.4375ZM13.0625 7.75C13.6875 8.5 13.125 9.0625 9.75 11.0625L5.625 13.4375V18.125V22.8125L4.375 20.9375C3.5 19.625 3.125 18 3.125 15.5V11.9375L7.375 9.4375C12.125 6.5625 12.0625 6.5625 13.0625 7.75ZM25.9375 10C26.4375 11 26.875 13.3125 26.875 15.125C26.875 18.75 27.1875 18.4375 20.0625 22.25C18.5625 23.0625 17.6875 23.75 18.125 23.75C18.5625 23.75 20.4375 22.875 22.3125 21.8125C24.1875 20.75 25.8125 20 25.9375 20.125C26.625 20.75 23.5 24.25 21.0625 25.5625L18.3125 27.0625L14 24.625C11 22.875 9.625 21.6875 9.5 20.75C9.25 18.9375 9.5 19 13.5 21.3125C15.625 22.5 16.75 22.875 16.5 22.3125C16.3125 21.6875 17.5 20.625 20.25 19L24.375 16.625V12.375C24.375 10.0625 24.5 8.125 24.6875 8.125C24.8125 8.125 25.375 8.9375 25.9375 10ZM12.8125 24.6875L16.5625 26.8125L13.875 26.875C12.1875 26.875 10.25 26.3125 8.75 25.5L6.25 24.0625V18.9375C6.25 14.6875 6.4375 13.6875 7.375 13.1875C8.3125 12.625 8.4375 13.0625 8.75 17.5625L9.0625 22.5625L12.8125 24.6875Z" fill="url(#paint0_linear_23_390)"/>
<defs>
<linearGradient id="paint0_linear_23_390" x1="14.7552" y1="29.375" x2="14.7552" y2="0.087986" gradientUnits="userSpaceOnUse">
<stop stop-color="#49D691"/>
<stop offset="1" stop-color="#26704C"/>
</linearGradient>
</defs>
</svg>
