<svg width="65" height="65" viewBox="0 0 65 65" fill="none" xmlns="http://www.w3.org/2000/svg">
<mask id="mask0_23_996" style="mask-type:luminance" maskUnits="userSpaceOnUse" x="0" y="0" width="65" height="65">
<path d="M64.3355 0.531982H0V64.8675H64.3355V0.531982Z" fill="white"/>
</mask>
<g mask="url(#mask0_23_996)">
<path d="M64.3354 21.441C64.3354 31.9277 56.6152 40.5807 46.579 42.0925V41.8995C45.5818 29.4186 35.449 19.2858 22.8714 18.2887H22.7749C24.2868 8.25241 32.9399 0.532227 43.4266 0.532227C54.9746 0.532227 64.3354 9.89295 64.3354 21.441Z" fill="#1EAE68"/>
<path d="M41.7534 42.2854C40.9492 32.0885 32.7786 23.9178 22.5816 23.1137C22.0347 23.0815 21.4557 23.0493 20.9088 23.0493C9.36072 23.0493 0 32.4101 0 43.9582C0 55.5062 9.36072 64.867 20.9088 64.867C32.4569 64.867 41.8177 55.5062 41.8177 43.9582C41.8177 43.4113 41.7855 42.8323 41.7534 42.2854ZM23.7396 46.7889L20.9088 52.0001L18.0781 46.7889L12.867 43.9582L18.0781 41.1274L20.9088 35.9162L23.7396 41.1274L28.9508 43.9582L23.7396 46.7889Z" fill="#1EAE68"/>
</g>
</svg>
