<svg width="65" height="65" viewBox="0 0 65 65" fill="none" xmlns="http://www.w3.org/2000/svg">
<mask id="mask0_23_1017" style="mask-type:luminance" maskUnits="userSpaceOnUse" x="-1" y="0" width="66" height="65">
<path d="M64.3352 0.531982H-0.000244141V64.8675H64.3352V0.531982Z" fill="white"/>
</mask>
<g mask="url(#mask0_23_1017)">
<path d="M26.4878 22.6764C27.5065 23.0356 28.556 22.5033 28.9045 21.55C29.2567 20.5766 28.7648 19.494 27.7781 19.1333C26.7709 18.7741 25.7127 19.2988 25.3614 20.2597C25.0092 21.2332 25.5013 22.3154 26.4878 22.6764Z" fill="#1EAE68"/>
<path d="M33.1797 28.2134C39.6477 28.0387 46.0016 25.7269 51.0725 21.703C51.7208 21.1896 52.4866 20.8912 53.2813 20.6992L54.0249 18.6569C54.3028 17.8949 54.0617 17.0408 53.4248 16.5364C47.0876 11.5077 39.1415 8.61619 31.0518 8.39341C23.9765 8.20015 17.2508 5.72213 11.6001 1.46847L10.9154 0.938333C10.4423 0.564637 9.81844 0.439485 9.23302 0.603338C8.64948 0.768951 8.18205 1.20334 7.97585 1.77217L0.113905 23.1517C-0.164042 23.9137 0.0770884 24.7677 0.712146 25.2721C5.15917 28.8 10.5268 31.2479 16.0479 32.4892C21.3713 29.8792 27.2335 28.377 33.1797 28.2134ZM35.9876 24.1278C36.3438 23.1495 37.4253 22.6452 38.4034 23.0012C39.3818 23.3572 39.886 24.4389 39.53 25.417C39.174 26.3952 38.0924 26.8996 37.1142 26.5434C36.1359 26.1876 35.6316 25.106 35.9876 24.1278ZM21.8193 18.9716C22.885 16.0431 26.1412 14.5265 29.066 15.5922C31.9961 16.6578 33.513 19.9102 32.4454 22.8387C31.3808 25.7671 28.1263 27.2874 25.1987 26.2183C22.2659 25.1493 20.7469 21.9141 21.8193 18.9716ZM14.7339 16.3922C15.0899 15.4138 16.1714 14.9096 17.1498 15.2657C18.1279 15.6217 18.632 16.7032 18.2762 17.6813C17.9202 18.6596 16.8385 19.1639 15.8604 18.8078C14.8822 18.4518 14.3778 17.3703 14.7339 16.3922Z" fill="#1EAE68"/>
<path d="M18.0455 63.6257C18.2518 64.1963 18.7211 64.6308 19.3028 64.7947C19.902 64.9641 20.5244 64.8261 20.9887 64.4578C26.6929 59.9316 33.8438 57.2034 41.1218 57.0045C49.2114 56.7819 57.283 53.8902 63.6222 48.8614C64.2572 48.3571 64.4984 47.5031 64.2204 46.7411L56.3586 25.4873C56.1523 24.9167 55.683 24.4824 55.1015 24.3185C54.5161 24.1529 53.8922 24.278 53.4154 24.6554C47.7112 29.1816 40.5603 31.7841 33.2825 31.9811C25.1946 32.2037 17.2486 35.0954 10.9094 40.1259C10.2726 40.6303 10.0315 41.4843 10.3094 42.2463L18.0455 63.6257ZM47.1847 38.8542C48.1629 38.4983 49.2445 39.0026 49.6005 39.9806C49.9565 40.9591 49.4523 42.0405 48.4739 42.3964C47.4958 42.7524 46.4143 42.2481 46.0581 41.27C45.7021 40.2916 46.2064 39.2102 47.1847 38.8542ZM35.2685 39.1797C38.1988 38.114 41.4513 39.6307 42.5152 42.5592C43.5828 45.4878 42.0661 48.7401 39.1356 49.8057C36.216 50.8698 32.9656 49.3802 31.8891 46.4263C30.8215 43.4978 32.3382 40.2455 35.2685 39.1797ZM25.9309 46.5899C26.909 46.2341 27.9905 46.7384 28.3467 47.7165C28.7027 48.6947 28.1984 49.7763 27.2203 50.1322C26.2419 50.4882 25.1603 49.9839 24.8043 49.0058C24.4483 48.0274 24.9527 46.9459 25.9309 46.5899Z" fill="#1EAE68"/>
<path d="M37.848 46.2648C38.8357 45.9037 39.3263 44.8205 38.9744 43.8481C38.6231 42.8878 37.5655 42.3623 36.5577 42.7217C35.57 43.0829 35.0794 44.1659 35.4311 45.1384C35.7855 46.107 36.8576 46.6256 37.848 46.2648Z" fill="#1EAE68"/>
</g>
</svg>
