<svg width="53" height="66" viewBox="0 0 53 66" fill="none" xmlns="http://www.w3.org/2000/svg">
<path fill-rule="evenodd" clip-rule="evenodd" d="M40.7735 16.8831C40.7735 27.2015 34.4743 36.0569 26.0861 36.0569C17.6915 36.0569 11.3987 27.2015 11.3987 16.8799C11.3987 6.56476 16.8168 0.531982 26.0861 0.531982C35.3555 0.531982 40.7735 6.56153 40.7735 16.8831ZM0.308127 59.1223C1.56472 60.6014 6.97621 65.1228 26.0861 65.1228C45.1961 65.1228 50.6043 60.6014 51.8642 59.1255C51.981 58.9837 52.0673 58.8197 52.1179 58.6436C52.1684 58.4676 52.182 58.2832 52.1579 58.1017C51.8707 55.2533 49.2792 42.516 26.0861 42.516C2.89311 42.516 0.301599 55.2533 0.011115 58.1017C-0.0125221 58.2834 0.00163147 58.4679 0.052708 58.644C0.103785 58.82 0.190705 58.9807 0.308127 59.1223Z" fill="#1EAE68"/>
</svg>
