<svg width="56" height="57" viewBox="0 0 56 57" fill="none" xmlns="http://www.w3.org/2000/svg">
<rect y="0.969971" width="56" height="56" rx="28" fill="#13111A"/>
<path d="M22.696 26.494L19.514 29.676C18.9977 30.1855 18.5872 30.7921 18.3063 31.4608C18.0253 32.1296 17.8794 32.8473 17.877 33.5727C17.8746 34.298 18.0156 35.0167 18.2921 35.6873C18.5686 36.358 18.975 36.9673 19.4879 37.4802C20.0008 37.9931 20.6101 38.3995 21.2807 38.6759C21.9513 38.9524 22.67 39.0935 23.3954 39.0911C24.1207 39.0886 24.8385 38.9427 25.5072 38.6618C26.176 38.3808 26.7825 37.9704 27.292 37.454L28.352 36.394C28.4954 36.2557 28.6097 36.0903 28.6884 35.9073C28.7671 35.7243 28.8086 35.5275 28.8104 35.3284C28.8122 35.1292 28.7744 34.9317 28.699 34.7473C28.6237 34.5629 28.5124 34.3954 28.3716 34.2545C28.2309 34.1136 28.0634 34.0021 27.8791 33.9266C27.6948 33.8511 27.4973 33.813 27.2981 33.8147C27.099 33.8163 26.9021 33.8576 26.7191 33.9361C26.536 34.0146 26.3704 34.1288 26.232 34.272L25.17 35.333C24.7004 35.7984 24.0656 36.0588 23.4044 36.0573C22.7433 36.0557 22.1097 35.7924 21.6422 35.3248C21.1748 34.8572 20.9116 34.2236 20.9103 33.5624C20.9089 32.9013 21.1695 32.2665 21.635 31.797L24.817 28.615C25.1609 28.271 25.5978 28.0347 26.074 27.9352C26.5502 27.8357 27.0451 27.8774 27.498 28.055C27.66 28.119 27.81 28.185 27.952 28.251L28.416 28.468C29.036 28.748 29.513 28.868 30.12 28.262C30.992 27.39 30.766 26.585 29.703 25.852C28.644 25.1237 27.3634 24.7892 26.0835 24.9065C24.8036 25.0238 23.6051 25.5854 22.696 26.494ZM28.706 20.484L27.646 21.544C27.3727 21.8268 27.2213 22.2056 27.2245 22.5989C27.2278 22.9922 27.3853 23.3685 27.6633 23.6468C27.9413 23.925 28.3174 24.0829 28.7107 24.0865C29.104 24.0901 29.483 23.9391 29.766 23.666L30.827 22.606C31.0576 22.3672 31.3334 22.1766 31.6384 22.0455C31.9433 21.9144 32.2714 21.8454 32.6033 21.8424C32.9353 21.8394 33.2645 21.9026 33.5718 22.0282C33.879 22.1538 34.1582 22.3394 34.393 22.574C34.6278 22.8087 34.8135 23.0878 34.9393 23.395C35.0651 23.7022 35.1284 24.0313 35.1257 24.3633C35.1229 24.6952 35.054 25.0233 34.9231 25.3284C34.7921 25.6334 34.6017 25.9093 34.363 26.14L31.181 29.322C30.8371 29.6661 30.4003 29.9024 29.924 30.0018C29.4478 30.1013 28.9529 30.0597 28.5 29.882C28.338 29.818 28.188 29.752 28.046 29.686L27.582 29.469C26.962 29.189 26.484 29.069 25.878 29.675C25.006 30.547 25.232 31.352 26.295 32.085C27.3541 32.8133 28.6347 33.1478 29.9146 33.0305C31.1945 32.9133 32.393 32.3516 33.302 31.443L36.484 28.261C37.0004 27.7515 37.4108 27.145 37.6918 26.4762C37.9727 25.8075 38.1186 25.0897 38.1211 24.3644C38.1235 23.639 37.9824 22.9203 37.7059 22.2497C37.4295 21.5791 37.0231 20.9698 36.5102 20.4569C35.9973 19.9439 35.388 19.5376 34.7173 19.2611C34.0467 18.9846 33.328 18.8435 32.6027 18.846C31.8773 18.8484 31.1596 18.9943 30.4908 19.2753C29.8221 19.5562 29.2155 19.9677 28.706 20.484Z" fill="white"/>
</svg>
