<svg width="22" height="22" viewBox="0 0 22 22" fill="none" xmlns="http://www.w3.org/2000/svg">
<path d="M5.69601 8.494L2.51401 11.676C1.99767 12.1855 1.5872 12.7921 1.30625 13.4608C1.0253 14.1296 0.879414 14.8473 0.876984 15.5727C0.874554 16.298 1.01563 17.0167 1.29209 17.6873C1.56856 18.358 1.97495 18.9673 2.48786 19.4802C3.00078 19.9931 3.61009 20.3995 4.28071 20.6759C4.95132 20.9524 5.67001 21.0935 6.39537 21.0911C7.12074 21.0886 7.83846 20.9427 8.50722 20.6618C9.17597 20.3808 9.78254 19.9704 10.292 19.454L11.352 18.394C11.4954 18.2557 11.6097 18.0903 11.6884 17.9073C11.7671 17.7243 11.8086 17.5275 11.8104 17.3284C11.8122 17.1292 11.7744 16.9317 11.699 16.7473C11.6237 16.5629 11.5124 16.3954 11.3716 16.2545C11.2309 16.1136 11.0634 16.0021 10.8791 15.9266C10.6948 15.8511 10.4973 15.813 10.2981 15.8147C10.099 15.8163 9.9021 15.8576 9.71906 15.9361C9.53603 16.0146 9.37044 16.1288 9.23201 16.272L8.17001 17.333C7.7004 17.7984 7.06556 18.0588 6.40442 18.0573C5.74328 18.0557 5.10966 17.7924 4.64223 17.3248C4.1748 16.8572 3.9116 16.2236 3.91025 15.5624C3.9089 14.9013 4.16949 14.2665 4.63501 13.797L7.81701 10.615C8.16093 10.271 8.59778 10.0347 9.074 9.9352C9.55021 9.83573 10.0451 9.87737 10.498 10.055C10.66 10.119 10.81 10.185 10.952 10.251L11.416 10.468C12.036 10.748 12.513 10.868 13.12 10.262C13.992 9.39 13.766 8.585 12.703 7.852C11.644 7.12374 10.3634 6.78922 9.08346 6.90649C7.80355 7.02376 6.60508 7.58542 5.69601 8.494ZM11.706 2.484L10.646 3.544C10.3727 3.82678 10.2213 4.20561 10.2245 4.59891C10.2278 4.99221 10.3853 5.3685 10.6633 5.64675C10.9413 5.92499 11.3174 6.08292 11.7107 6.08652C12.104 6.09013 12.483 5.93911 12.766 5.666L13.827 4.606C14.0576 4.36716 14.3334 4.17663 14.6384 4.04552C14.9433 3.91442 15.2714 3.84536 15.6033 3.84238C15.9353 3.8394 16.2645 3.90256 16.5718 4.02818C16.879 4.15379 17.1582 4.33935 17.393 4.57401C17.6278 4.80868 17.8135 5.08775 17.9393 5.39496C18.0651 5.70216 18.1284 6.03134 18.1257 6.36329C18.1229 6.69524 18.054 7.02331 17.9231 7.32836C17.7921 7.6334 17.6017 7.90932 17.363 8.14L14.181 11.322C13.8371 11.6661 13.4003 11.9024 12.924 12.0018C12.4478 12.1013 11.9529 12.0597 11.5 11.882C11.338 11.818 11.188 11.752 11.046 11.686L10.582 11.469C9.96201 11.189 9.48401 11.069 8.87801 11.675C8.00601 12.547 8.23201 13.352 9.29501 14.085C10.3541 14.8133 11.6347 15.1478 12.9146 15.0305C14.1945 14.9133 15.393 14.3516 16.302 13.443L19.484 10.261C20.0004 9.75154 20.4108 9.14497 20.6918 8.47621C20.9727 7.80746 21.1186 7.08974 21.1211 6.36437C21.1235 5.63901 20.9824 4.92032 20.7059 4.2497C20.4295 3.57908 20.0231 2.96977 19.5102 2.45686C18.9973 1.94394 18.388 1.53756 17.7173 1.26109C17.0467 0.984631 16.328 0.843548 15.6027 0.845978C14.8773 0.848409 14.1596 0.994301 13.4908 1.27525C12.8221 1.5562 12.2155 1.96766 11.706 2.484Z" fill="white"/>
</svg>
