<svg width="18" height="20" viewBox="0 0 18 20" fill="none" xmlns="http://www.w3.org/2000/svg">
<g clip-path="url(#clip0_23_1080)">
<path d="M9 0.439941C9.29837 0.439941 9.58452 0.554547 9.79549 0.758546C10.0065 0.962546 10.125 1.23923 10.125 1.52773V11.5926L12.7046 9.09836C12.9168 8.90021 13.201 8.79056 13.496 8.79304C13.7909 8.79552 14.0731 8.90992 14.2817 9.11161C14.4903 9.31329 14.6086 9.58612 14.6111 9.87134C14.6137 10.1566 14.5003 10.4313 14.2954 10.6364L9.79537 14.9876C9.58441 15.1915 9.29831 15.3061 9 15.3061C8.70169 15.3061 8.41559 15.1915 8.20463 14.9876L3.70463 10.6364C3.59718 10.5361 3.51147 10.4161 3.45251 10.2834C3.39355 10.1507 3.36252 10.0079 3.36122 9.86351C3.35992 9.71907 3.38838 9.57583 3.44495 9.44215C3.50152 9.30846 3.58505 9.18701 3.69068 9.08487C3.79631 8.98274 3.92192 8.90197 4.06018 8.84727C4.19844 8.79258 4.34657 8.76505 4.49595 8.76631C4.64533 8.76756 4.79295 8.79757 4.9302 8.85458C5.06746 8.91159 5.1916 8.99446 5.29537 9.09836L7.875 11.5926V1.52773C7.875 1.23923 7.99353 0.962546 8.20451 0.758546C8.41548 0.554547 8.70163 0.439941 9 0.439941ZM1.125 14.001C1.42337 14.001 1.70952 14.1156 1.92049 14.3196C2.13147 14.5236 2.25 14.8003 2.25 15.0888V17.2643H15.75V15.0888C15.75 14.8003 15.8685 14.5236 16.0795 14.3196C16.2905 14.1156 16.5766 14.001 16.875 14.001C17.1734 14.001 17.4595 14.1156 17.6705 14.3196C17.8815 14.5236 18 14.8003 18 15.0888V17.2643C18 17.8413 17.7629 18.3947 17.341 18.8027C16.919 19.2107 16.3467 19.4399 15.75 19.4399H2.25C1.65326 19.4399 1.08097 19.2107 0.65901 18.8027C0.237053 18.3947 0 17.8413 0 17.2643V15.0888C0 14.8003 0.118527 14.5236 0.329505 14.3196C0.540484 14.1156 0.826631 14.001 1.125 14.001Z" fill="white"/>
</g>
<defs>
<clipPath id="clip0_23_1080">
<rect width="18" height="19" fill="white" transform="translate(0 0.439941)"/>
</clipPath>
</defs>
</svg>
