<svg width="56" height="57" viewBox="0 0 56 57" fill="none" xmlns="http://www.w3.org/2000/svg">
<rect y="0.939941" width="56" height="56" rx="28" fill="#13111A"/>
<g clip-path="url(#clip0_23_1079)">
<path d="M28 19.4399C28.2984 19.4399 28.5845 19.5545 28.7955 19.7585C29.0065 19.9625 29.125 20.2392 29.125 20.5277V30.5926L31.7046 28.0984C31.9168 27.9002 32.201 27.7906 32.496 27.793C32.7909 27.7955 33.0731 27.9099 33.2817 28.1116C33.4903 28.3133 33.6086 28.5861 33.6111 28.8713C33.6137 29.1566 33.5003 29.4313 33.2954 29.6364L28.7954 33.9876C28.5844 34.1915 28.2983 34.3061 28 34.3061C27.7017 34.3061 27.4156 34.1915 27.2046 33.9876L22.7046 29.6364C22.5972 29.5361 22.5115 29.4161 22.4525 29.2834C22.3936 29.1507 22.3625 29.0079 22.3612 28.8635C22.3599 28.7191 22.3884 28.5758 22.445 28.4422C22.5015 28.3085 22.5851 28.187 22.6907 28.0849C22.7963 27.9827 22.9219 27.902 23.0602 27.8473C23.1984 27.7926 23.3466 27.7651 23.496 27.7663C23.6453 27.7676 23.793 27.7976 23.9302 27.8546C24.0675 27.9116 24.1916 27.9945 24.2954 28.0984L26.875 30.5926V20.5277C26.875 20.2392 26.9935 19.9625 27.2045 19.7585C27.4155 19.5545 27.7016 19.4399 28 19.4399ZM20.125 33.001C20.4234 33.001 20.7095 33.1156 20.9205 33.3196C21.1315 33.5236 21.25 33.8003 21.25 34.0888V36.2643H34.75V34.0888C34.75 33.8003 34.8685 33.5236 35.0795 33.3196C35.2905 33.1156 35.5766 33.001 35.875 33.001C36.1734 33.001 36.4595 33.1156 36.6705 33.3196C36.8815 33.5236 37 33.8003 37 34.0888V36.2643C37 36.8413 36.7629 37.3947 36.341 37.8027C35.919 38.2107 35.3467 38.4399 34.75 38.4399H21.25C20.6533 38.4399 20.081 38.2107 19.659 37.8027C19.2371 37.3947 19 36.8413 19 36.2643V34.0888C19 33.8003 19.1185 33.5236 19.3295 33.3196C19.5405 33.1156 19.8266 33.001 20.125 33.001Z" fill="white"/>
</g>
<defs>
<clipPath id="clip0_23_1079">
<rect width="18" height="19" fill="white" transform="translate(19 19.4399)"/>
</clipPath>
</defs>
</svg>
