<svg width="56" height="57" viewBox="0 0 56 57" fill="none" xmlns="http://www.w3.org/2000/svg">
<rect y="0.589844" width="56" height="56" rx="28" fill="#13111A"/>
<path d="M34 27.369V30.5508C34 32.0749 33.8576 33.3761 33.5728 34.4545C33.2963 35.5241 32.8942 36.393 32.3665 37.0615C31.8387 37.7299 31.2063 38.2201 30.4691 38.5321C29.7403 38.844 28.9236 39 28.0188 39C27.2984 39 26.6283 38.902 26.0084 38.7059C25.3969 38.5098 24.844 38.2023 24.3497 37.7834C23.8555 37.3645 23.4325 36.8253 23.0806 36.1658C22.7372 35.4973 22.4691 34.6996 22.2764 33.7727C22.0921 32.8458 22 31.7718 22 30.5508V27.369C22 25.836 22.1424 24.5437 22.4272 23.492C22.712 22.4314 23.1183 21.5713 23.6461 20.9118C24.1738 20.2433 24.8021 19.7576 25.5309 19.4545C26.2681 19.1515 27.089 19 27.9937 19C28.7225 19 29.3927 19.098 30.0042 19.2941C30.6241 19.4813 31.177 19.7799 31.6628 20.1898C32.1571 20.5998 32.5759 21.1346 32.9194 21.7941C33.2712 22.4447 33.5393 23.2335 33.7236 24.1604C33.9079 25.0784 34 26.1479 34 27.369ZM30.9717 31.0053V26.8877C30.9717 26.1123 30.9298 25.4305 30.8461 24.8422C30.7623 24.2451 30.6366 23.7415 30.4691 23.3316C30.3099 22.9127 30.1089 22.574 29.866 22.3155C29.623 22.0481 29.3466 21.8565 29.0366 21.7406C28.7267 21.6159 28.3791 21.5535 27.9937 21.5535C27.5246 21.5535 27.1058 21.6515 26.7372 21.8476C26.3686 22.0348 26.0586 22.3378 25.8073 22.7567C25.556 23.1756 25.3634 23.7282 25.2293 24.4144C25.1037 25.0918 25.0408 25.9162 25.0408 26.8877V31.0053C25.0408 31.7897 25.0827 32.4804 25.1665 33.0775C25.2503 33.6747 25.3759 34.1872 25.5435 34.615C25.711 35.0339 25.912 35.3815 26.1466 35.6578C26.3895 35.9251 26.666 36.1212 26.9759 36.246C27.2942 36.3708 27.6419 36.4332 28.0188 36.4332C28.4963 36.4332 28.9194 36.3351 29.288 36.139C29.6565 35.943 29.9665 35.631 30.2178 35.2032C30.4691 34.7665 30.6576 34.2005 30.7832 33.5053C30.9089 32.8102 30.9717 31.9768 30.9717 31.0053Z" fill="white"/>
</svg>
