<svg width="12" height="20" viewBox="0 0 12 20" fill="none" xmlns="http://www.w3.org/2000/svg">
<path d="M12 8.36898V11.5508C12 13.0749 11.8576 14.3761 11.5728 15.4545C11.2963 16.5241 10.8942 17.393 10.3665 18.0615C9.83874 18.7299 9.20628 19.2201 8.46911 19.5321C7.74031 19.844 6.92356 20 6.01885 20C5.29843 20 4.62827 19.902 4.00838 19.7059C3.39686 19.5098 2.84398 19.2023 2.34974 18.7834C1.8555 18.3645 1.43246 17.8253 1.08063 17.1658C0.737173 16.4973 0.46911 15.6996 0.27644 14.7727C0.0921466 13.8458 0 12.7718 0 11.5508V8.36898C0 6.83601 0.142408 5.54367 0.427225 4.49198C0.712042 3.43137 1.11832 2.5713 1.64607 1.91176C2.17382 1.24332 2.80209 0.757576 3.53089 0.454545C4.26806 0.151515 5.08901 0 5.99372 0C6.72251 0 7.39267 0.0980392 8.00419 0.294118C8.62408 0.481283 9.17696 0.779857 9.66283 1.18984C10.1571 1.59982 10.5759 2.13458 10.9194 2.79412C11.2712 3.44474 11.5393 4.23351 11.7236 5.16043C11.9079 6.07843 12 7.14795 12 8.36898ZM8.97173 12.0053V7.8877C8.97173 7.1123 8.92984 6.43048 8.84607 5.84225C8.7623 5.2451 8.63665 4.74153 8.46911 4.33155C8.30995 3.91266 8.1089 3.57397 7.86597 3.31551C7.62304 3.04813 7.3466 2.85651 7.03665 2.74064C6.7267 2.61586 6.37906 2.55348 5.99372 2.55348C5.52461 2.55348 5.10576 2.65152 4.73717 2.84759C4.36859 3.03476 4.05864 3.33779 3.80733 3.75668C3.55602 4.17558 3.36335 4.72816 3.22932 5.41444C3.10367 6.0918 3.04084 6.91622 3.04084 7.8877V12.0053C3.04084 12.7897 3.08272 13.4804 3.16649 14.0775C3.25026 14.6747 3.37592 15.1872 3.54346 15.615C3.71099 16.0339 3.91204 16.3815 4.1466 16.6578C4.38953 16.9251 4.66597 17.1212 4.97592 17.246C5.29424 17.3708 5.64188 17.4332 6.01885 17.4332C6.49634 17.4332 6.91937 17.3351 7.28796 17.139C7.65654 16.943 7.96649 16.631 8.2178 16.2032C8.46911 15.7665 8.65759 15.2005 8.78325 14.5053C8.9089 13.8102 8.97173 12.9768 8.97173 12.0053Z" fill="white"/>
</svg>
