<svg width="59" height="59" viewBox="0 0 59 59" fill="none" xmlns="http://www.w3.org/2000/svg">
<path d="M23.6848 3.88308C27.2282 1.83731 31.5938 1.83731 35.1371 3.88308L48.4798 11.5865C52.0232 13.6322 54.206 17.413 54.206 21.5046V36.9114C54.206 41.0029 52.0232 44.7836 48.4798 46.8294L35.1371 54.5328C31.5938 56.5785 27.2282 56.5785 23.6848 54.5328L10.3421 46.8294C6.79871 44.7836 4.61591 41.0029 4.61591 36.9114V21.5044C4.61591 17.413 6.79871 13.6322 10.3421 11.5865L23.6848 3.88308Z" fill="#F69119"/>
<path fill-rule="evenodd" clip-rule="evenodd" d="M38.9047 26.8975C39.3017 24.2585 37.2805 22.8399 34.5166 21.8936L35.4132 18.3189L33.2241 17.7767L32.3512 21.2573C31.7757 21.1146 31.1846 20.9801 30.5973 20.8469L31.4764 17.3433L29.2886 16.801L28.3915 20.3747C27.9153 20.2669 27.4475 20.1604 26.9936 20.0481L26.9963 20.0369L23.9774 19.2874L23.395 21.6116C23.395 21.6116 25.0191 21.9817 24.9849 22.0045C25.8714 22.2244 26.0318 22.8078 26.0051 23.2701L24.9838 27.3425C25.0448 27.358 25.1239 27.3803 25.2113 27.4152L25.1476 27.3994C25.0937 27.3859 25.0375 27.372 24.98 27.3582L23.5484 33.0632C23.44 33.3309 23.165 33.7326 22.5452 33.5801C22.5672 33.6117 20.9541 33.1855 20.9541 33.1855L19.8673 35.6762L22.7161 36.3822C23.028 36.4599 23.3363 36.5399 23.6415 36.619C23.8544 36.6742 24.0667 36.7291 24.2769 36.7825L23.371 40.3983L25.5576 40.9404L26.4548 37.3631C27.0521 37.5244 27.6318 37.673 28.1993 37.8131L27.3052 41.3737L29.4945 41.9159L30.4003 38.3069C34.1332 39.0091 36.9402 38.7261 38.1217 35.3698C39.0737 32.6676 38.0742 31.109 36.1103 30.0927C37.5408 29.7647 38.6174 28.8292 38.9047 26.8975ZM33.9027 33.8691C33.282 36.3482 29.378 35.3233 27.5918 34.8544C27.4311 34.8122 27.2875 34.7744 27.1651 34.7442L28.3672 29.954C28.5164 29.991 28.6989 30.0317 28.9055 30.0778C30.7531 30.4899 34.5385 31.3344 33.9027 33.8691ZM29.2761 27.8548C30.7653 28.2498 34.0138 29.1116 34.5797 26.8584C35.1574 24.5539 32.0004 23.859 30.4586 23.5197C30.285 23.4816 30.1321 23.4479 30.0071 23.417L28.9171 27.7613C29.0201 27.7868 29.1408 27.819 29.2761 27.8548Z" fill="white"/>
</svg>
