<svg width="59" height="59" viewBox="0 0 59 59" fill="none" xmlns="http://www.w3.org/2000/svg">
<path d="M23.6848 4.44667C27.2282 2.40091 31.5938 2.40092 35.1371 4.44668L48.4798 12.1501C52.0232 14.1958 54.206 17.9766 54.206 22.0682V37.475C54.206 41.5664 52.0232 45.3472 48.4798 47.393L35.1371 55.0964C31.5938 57.1422 27.2282 57.1422 23.6848 55.0964L10.3421 47.393C6.79871 45.3472 4.61591 41.5664 4.61591 37.475V22.0682C4.61591 17.9766 6.79871 14.1958 10.3421 12.1501L23.6848 4.44667Z" fill="#8CC14F"/>
<path fill-rule="evenodd" clip-rule="evenodd" d="M36.0123 22.9447C35.0568 20.5706 32.7879 20.4519 30.0412 20.9268L29.0858 17.6031L27.0557 18.1966L28.0111 21.4015C27.8176 21.4496 27.6045 21.5172 27.3796 21.5884C27.0496 21.6931 26.6944 21.8058 26.3392 21.8764L25.3838 18.5527L23.3537 19.1462L24.309 22.47C24.0702 22.5293 23.8612 22.5885 23.6522 22.6479C23.4432 22.7073 23.2342 22.7666 22.9955 22.826L20.2487 23.7756L20.8459 25.9123C20.8459 25.9123 22.3983 25.4374 22.2789 25.4374C23.1148 25.2 23.4731 25.5562 23.712 26.0309L24.7868 29.8294H25.0255L24.7868 29.9481L26.3392 35.2896C26.3392 35.5271 26.3392 36.0019 25.742 36.2394L24.309 36.7141L24.5479 39.2068L27.1751 38.4947L28.6081 38.1385L29.5635 41.4622L31.5936 40.8687L30.6383 37.545C31.2353 37.4264 31.7131 37.3077 32.3101 37.0702L33.2655 40.3939L35.2957 39.8004L34.3403 36.4767C37.6841 35.2896 39.8336 33.7466 39.2366 30.423C38.7588 27.8115 37.2064 26.9806 35.0568 27.0993C36.251 25.9123 36.7288 24.7253 36.0123 22.9447ZM35.296 31.0164C35.9276 33.2138 32.569 34.2121 30.7826 34.743C30.5424 34.8144 30.3307 34.8773 30.161 34.9336L28.8473 30.4228C29.0357 30.376 29.2714 30.3068 29.5408 30.2274C31.3213 29.7038 34.57 28.7481 35.296 31.0164ZM28.5832 28.3095C30.0109 27.9061 33.0888 27.0368 32.4299 24.9627C31.8897 22.8151 28.9062 23.776 27.4581 24.2424C27.3054 24.2915 27.1698 24.3353 27.056 24.3691L28.2501 28.4051C28.3461 28.3764 28.4584 28.3448 28.5832 28.3095Z" fill="white"/>
</svg>
