<svg width="59" height="60" viewBox="0 0 59 60" fill="none" xmlns="http://www.w3.org/2000/svg">
<path d="M23.6848 4.36599C27.2282 2.32022 31.5938 2.32022 35.1371 4.36599L48.4798 12.0694C52.0232 14.1151 54.206 17.8959 54.206 21.9874V37.3942C54.206 41.4858 52.0232 45.2666 48.4798 47.3122L35.1371 55.0156C31.5938 57.0614 27.2282 57.0614 23.6848 55.0156L10.3421 47.3122C6.79871 45.2666 4.61591 41.4858 4.61591 37.3942V21.9874C4.61591 17.8959 6.79871 14.1151 10.3421 12.0694L23.6848 4.36599Z" fill="#2D59D3"/>
<path fill-rule="evenodd" clip-rule="evenodd" d="M26.9869 18.1375L29.4107 16.7439L31.8345 18.1375L38.4393 21.9549L40.8631 23.3487V36.5583L38.4393 37.9519L31.895 41.7693L29.4713 43.1631L27.0475 41.7693L20.3822 37.9519L17.9584 36.5583V23.3487L20.3822 21.9549L26.9869 18.1375ZM22.8056 26.1356V33.7706L29.4105 37.588L36.0152 33.7706V26.1356L29.4105 22.3182L22.8056 26.1356Z" fill="white"/>
</svg>
