<svg width="59" height="60" viewBox="0 0 59 60" fill="none" xmlns="http://www.w3.org/2000/svg">
<path d="M23.6848 4.96377C27.2282 2.918 31.5938 2.918 35.1371 4.96377L48.4798 12.6672C52.0232 14.7129 54.206 18.4937 54.206 22.5852V37.992C54.206 42.0836 52.0232 45.8644 48.4798 47.91L35.1371 55.6134C31.5938 57.6592 27.2282 57.6592 23.6848 55.6134L10.3421 47.91C6.79871 45.8644 4.61591 42.0836 4.61591 37.992V22.5852C4.61591 18.4937 6.79871 14.7129 10.3421 12.6672L23.6848 4.96377Z" fill="#FCCE1A"/>
<path fill-rule="evenodd" clip-rule="evenodd" d="M24.4448 28.1326H31.0322V31.6778H24.4448V39.1499H28.5997C30.2443 39.1499 31.5895 38.925 32.6369 38.4721C33.6845 38.0208 34.506 37.3959 35.103 36.5955C35.7136 35.7635 36.1294 34.8008 36.3184 33.7809C36.5391 32.6303 36.6464 31.4604 36.6392 30.2883C36.6464 29.1162 36.5391 27.9464 36.3184 26.7958C36.1295 25.7759 35.7139 24.8131 35.103 23.981C34.506 23.1808 33.6829 22.5559 32.6369 22.1046C31.5895 21.6517 30.2443 21.4268 28.5997 21.4268H24.4448V28.1342V28.1326ZM20.2213 31.6778H17.9584V28.1342H20.2213V17.8816H30.2214C32.0689 17.8816 33.6677 18.2073 35.0191 18.8541C36.3704 19.5038 37.4728 20.3893 38.3295 21.5136C39.1845 22.6366 39.8213 23.9515 40.2382 25.4574C40.655 26.9633 40.8627 28.5747 40.8627 30.2883C40.8731 31.9202 40.6625 33.5457 40.2366 35.1193C39.8213 36.6236 39.1845 37.9401 38.3279 39.063C37.4728 40.1874 36.3704 41.0729 35.0191 41.7226C33.6677 42.3709 32.0674 42.6951 30.2214 42.6951H20.2213V31.6778Z" fill="white"/>
</svg>
