<svg width="59" height="59" viewBox="0 0 59 59" fill="none" xmlns="http://www.w3.org/2000/svg">
<path d="M23.6839 4.49551C27.2272 2.44974 31.5929 2.44974 35.1362 4.49551L48.479 12.1989C52.0224 14.2447 54.2051 18.0255 54.2051 22.1169V37.5237C54.2051 41.6153 52.0224 45.3961 48.479 47.4418L35.1362 55.1452C31.5929 57.191 27.2272 57.191 23.6839 55.1452L10.3412 47.4418C6.79785 45.3961 4.61505 41.6153 4.61505 37.5237V22.1169C4.61505 18.0255 6.79785 14.2447 10.3412 12.1989L23.6839 4.49551Z" fill="#627FE9"/>
<path d="M29.4075 14.5503V25.8394L38.9473 30.1031L29.4075 14.5503Z" fill="white" fill-opacity="0.602"/>
<path d="M29.4076 14.5503L19.8665 30.1031L29.4076 25.8394V14.5503Z" fill="white"/>
<path d="M29.4075 37.4193V45.09L38.9536 31.8802L29.4075 37.4193Z" fill="white" fill-opacity="0.602"/>
<path d="M29.4076 45.09V37.418L19.8665 31.8802L29.4076 45.09Z" fill="white"/>
<path d="M29.4075 35.6435L38.9473 30.1032L29.4075 25.8422V35.6435Z" fill="white" fill-opacity="0.2"/>
<path d="M19.8665 30.1032L29.4076 35.6435V25.8422L19.8665 30.1032Z" fill="white" fill-opacity="0.602"/>
</svg>
