<svg width="171" height="56" viewBox="0 0 171 56" fill="none" xmlns="http://www.w3.org/2000/svg">
<path d="M170.882 44.3965H165.007C163.965 44.3965 163.134 43.5291 163.176 42.4885L163.954 23.8322C163.989 22.9985 163.455 22.2466 162.657 22.0037L154.402 19.4912C153.826 19.3156 153.372 18.8674 153.19 18.2925L148.45 3.3457C148.033 2.02768 146.36 1.63022 145.394 2.61909L127.837 20.5845L120.136 28.7131C119.791 29.0782 119.31 29.2851 118.807 29.2851H100.931C100.56 29.2851 100.198 29.1727 99.8931 28.9628L93.0352 24.2479L87.7989 21.2558C87.1008 20.8568 86.224 20.9598 85.6373 21.5098L79.2975 27.4533L74.6128 31.7123C74.3817 31.9223 74.1009 32.0699 73.7968 32.1407L61.1396 35.0941C60.74 35.1873 60.3207 35.1437 59.9488 34.9702L54.523 32.4382C53.9788 32.1841 53.3445 32.2132 52.8256 32.5158L43.7495 37.8101C43.0954 38.1918 42.2738 38.1314 41.6825 37.6582L29.4279 27.8547C29.1033 27.5949 28.6922 27.4281 28.2964 27.5559C25.902 28.3289 22.0369 33.7704 6.13151 53.7678C5.78414 54.2046 5.24716 54.4707 4.68913 54.4707H0.535156" stroke="#7AD1B3" stroke-width="2.74752"/>
</svg>
