<svg width="210" height="59" viewBox="0 0 210 59" fill="none" xmlns="http://www.w3.org/2000/svg">
<g clip-path="url(#clip0_23_916)">
<path d="M28.3242 28.5605C26.0484 29.3779 22.8821 35.1229 6.12893 54.3738C5.78157 54.7729 5.26851 55.0128 4.73936 55.0128H3.05362C2.42137 55.0128 1.90881 55.5253 1.90881 56.1576C1.90881 56.7898 2.42137 57.3023 3.05362 57.3023H167.676C168.688 57.3023 169.508 56.4823 169.508 55.4707V47.2282C169.508 46.2166 168.688 45.3964 167.676 45.3964H166.229C165.246 45.3964 164.439 44.6212 164.399 43.6395L163.607 24.2401C163.575 23.4706 163.066 22.8028 162.333 22.5693L154.325 20.0215C153.791 19.8518 153.366 19.4477 153.167 18.9242L148.039 5.37016C147.577 4.15017 146.024 3.78997 145.073 4.6821L132.416 16.5474L120.135 29.2678C119.789 29.6252 119.314 29.8271 118.817 29.8271H100.887C100.544 29.8271 100.207 29.7306 99.9164 29.5487L89.4914 23.0331C89.4118 22.9833 89.3284 22.9398 89.242 22.9028L87.3061 22.0731C86.6177 21.778 85.819 21.9319 85.2894 22.4615L80.2133 27.5375L75.4962 31.8258C75.2857 32.0171 75.0337 32.1569 74.7599 32.2338L61.1772 36.054C60.755 36.1727 60.3042 36.136 59.9066 35.9505L54.4395 33.3992C53.9422 33.1671 53.3671 33.1703 52.8723 33.4077L43.2143 38.0436C42.5952 38.3408 41.8618 38.2666 41.3147 37.8515L29.417 28.8258C29.0985 28.5842 28.7005 28.4254 28.3242 28.5605Z" fill="url(#paint0_linear_23_916)"/>
<path d="M170.882 45.3965H165.007C163.965 45.3965 163.134 44.5291 163.176 43.4885L163.954 24.8322C163.989 23.9985 163.455 23.2466 162.657 23.0037L154.402 20.4912C153.826 20.3156 153.372 19.8674 153.19 19.2925L148.45 4.3457C148.033 3.02768 146.36 2.63022 145.394 3.61909L127.837 21.5845L120.136 29.7131C119.791 30.0782 119.31 30.2851 118.807 30.2851H100.931C100.56 30.2851 100.198 30.1727 99.8931 29.9628L93.0352 25.2479L87.7989 22.2558C87.1008 21.8568 86.224 21.9598 85.6373 22.5098L79.2975 28.4533L74.6128 32.7123C74.3817 32.9223 74.1009 33.0699 73.7968 33.1407L61.1396 36.0941C60.74 36.1873 60.3207 36.1437 59.9488 35.9702L54.523 33.4382C53.9788 33.1841 53.3445 33.2132 52.8256 33.5158L43.7495 38.8101C43.0954 39.1918 42.2738 39.1314 41.6825 38.6582L29.4279 28.8547C29.1033 28.5949 28.6922 28.4281 28.2964 28.5559C25.902 29.3289 22.0369 34.7704 6.13151 54.7678C5.78414 55.2046 5.24716 55.4707 4.68913 55.4707H0.535156" stroke="#7AD1B3" stroke-width="2.74752"/>
</g>
<defs>
<linearGradient id="paint0_linear_23_916" x1="84.7924" y1="4.18355" x2="84.7924" y2="57.3023" gradientUnits="userSpaceOnUse">
<stop stop-color="#1EAE68"/>
<stop offset="1" stop-color="#1EAE68" stop-opacity="0"/>
</linearGradient>
<clipPath id="clip0_23_916">
<rect width="208.876" height="58.1679" fill="white" transform="translate(0.431519 0.24939)"/>
</clipPath>
</defs>
</svg>
