<svg width="182" height="57" viewBox="0 0 182 57" fill="none" xmlns="http://www.w3.org/2000/svg">
<path d="M0.422974 43.6945H4.19408C4.92461 43.6945 5.59599 43.2928 5.94142 42.649L15.9143 24.0632C16.1537 23.6171 16.5544 23.2796 17.0345 23.1195L23.3021 21.0304C23.5794 20.938 23.8328 20.7853 24.0443 20.5836L32.74 12.283C33.6895 11.3768 35.2414 11.6262 35.859 12.7842L42.2642 24.794C42.4578 25.1569 42.7593 25.4505 43.1271 25.6344L51.5522 29.8469C52.1315 30.1367 52.8157 30.1251 53.385 29.8161L69.3346 21.1577C69.6571 20.9827 69.9248 20.7216 70.1076 20.4035L80.2779 2.71605C80.8094 1.79162 81.9769 1.45307 82.9205 1.94973L89.9438 5.64618C90.3966 5.88447 90.7396 6.28853 90.9014 6.7739L96.6421 23.9958C96.912 24.8056 97.6698 25.3517 98.5233 25.3517H102.785C103.271 25.3517 103.739 25.5299 104.102 25.8526L115.527 36.0076C116.311 36.7051 117.504 36.67 118.246 35.9276L122.784 31.3902C123.421 30.7532 124.407 30.6256 125.185 31.0794L134.693 36.626C135.347 37.0077 136.162 36.9833 136.792 36.5631L150.635 27.3347C162.353 20.4989 163.203 30.8798 175.352 53.5511C175.696 54.1923 176.372 54.6009 177.099 54.6009H181.371" stroke="#DB5748" stroke-width="2.97449"/>
</svg>
