<svg width="183" height="61" viewBox="0 0 183 61" fill="none" xmlns="http://www.w3.org/2000/svg">
<g clip-path="url(#clip0_23_904)">
<path d="M159.075 26.161C161.756 26.8547 166.361 33.1919 177.957 54.5195C178.23 55.0202 178.761 55.3439 179.331 55.3439C180.189 55.3439 180.884 56.0395 180.884 56.8977V57.3269C180.884 58.422 179.996 59.3099 178.901 59.3099H3.40597C2.31079 59.3099 1.42297 58.422 1.42297 57.3269V46.4204C1.42297 45.3252 2.31079 44.4374 3.40597 44.4374H5.1982C5.92656 44.4374 6.59631 44.0381 6.94266 43.3974L16.0698 26.512C16.2181 26.2377 16.4291 26.0021 16.6856 25.8246L22.7402 21.6329L33.7631 12.7298C34.7316 11.9475 36.1729 12.2408 36.7588 13.3393L43.2642 25.5369C43.4577 25.8998 43.7593 26.1934 44.1271 26.3773L52.5522 30.5898C53.1315 30.8796 53.8157 30.868 54.385 30.559L70.3346 21.9006C70.6571 21.7256 70.9248 21.4645 71.1076 21.1464L81.2778 3.45897C81.8094 2.53454 82.9769 2.19599 83.9205 2.69265L90.9438 6.3891C91.3965 6.62739 91.7396 7.03145 91.9014 7.51682L97.6421 24.7387C97.912 25.5485 98.6698 26.0947 99.5233 26.0947H103.785C104.271 26.0947 104.739 26.2729 105.102 26.5956L116.527 36.7505C117.311 37.448 118.504 37.4129 119.246 36.6705L123.784 32.1331C124.421 31.4961 125.407 31.3685 126.185 31.8223L135.796 37.4288C136.396 37.7787 137.135 37.7895 137.745 37.4568L158.131 26.3369C158.423 26.1779 158.754 26.0779 159.075 26.161Z" fill="url(#paint0_linear_23_904)"/>
<path d="M1.42297 44.4374H5.19408C5.92461 44.4374 6.59599 44.0358 6.94142 43.3919L16.9143 24.8061C17.1537 24.3601 17.5544 24.0226 18.0345 23.8625L24.3021 21.7733C24.5794 21.6809 24.8328 21.5282 25.0443 21.3265L33.74 13.0259C34.6895 12.1197 36.2414 12.3691 36.859 13.5271L43.2642 25.5369C43.4578 25.8998 43.7593 26.1934 44.1271 26.3773L52.5522 30.5898C53.1315 30.8796 53.8157 30.868 54.385 30.559L70.3346 21.9006C70.6571 21.7256 70.9248 21.4645 71.1076 21.1464L81.2779 3.45897C81.8094 2.53454 82.9769 2.19599 83.9205 2.69265L90.9438 6.3891C91.3966 6.62739 91.7396 7.03145 91.9014 7.51682L97.6421 24.7387C97.912 25.5485 98.6698 26.0947 99.5233 26.0947H103.785C104.271 26.0947 104.739 26.2729 105.102 26.5956L116.527 36.7505C117.311 37.448 118.504 37.4129 119.246 36.6705L123.784 32.1331C124.421 31.4961 125.407 31.3685 126.185 31.8223L135.693 37.3689C136.347 37.7506 137.162 37.7263 137.792 37.306L151.635 28.0777C163.353 21.2419 164.203 31.6227 176.352 54.2941C176.696 54.9352 177.372 55.3439 178.099 55.3439H182.371" stroke="#DB5748" stroke-width="2.97449"/>
</g>
<defs>
<linearGradient id="paint0_linear_23_904" x1="91.1536" y1="1.80295" x2="91.1536" y2="59.3099" gradientUnits="userSpaceOnUse">
<stop stop-color="#DB5748" stop-opacity="0.52"/>
<stop offset="1" stop-color="#DB5748" stop-opacity="0"/>
</linearGradient>
<clipPath id="clip0_23_904">
<rect width="182.436" height="59.4899" fill="white" transform="translate(0.431519 0.811401)"/>
</clipPath>
</defs>
</svg>
