<svg width="59" height="59" viewBox="0 0 59 59" fill="none" xmlns="http://www.w3.org/2000/svg">
<path d="M23.6848 4.73684C27.2282 2.69107 31.5938 2.69107 35.1371 4.73684L48.4798 12.4403C52.0232 14.486 54.206 18.2667 54.206 22.3583V37.7651C54.206 41.8567 52.0232 45.6373 48.4798 47.6831L35.1371 55.3865C31.5938 57.4323 27.2282 57.4323 23.6848 55.3865L10.3421 47.6831C6.79871 45.6373 4.61591 41.8567 4.61591 37.7651V22.3583C4.61591 18.2667 6.79871 14.486 10.3421 12.4403L23.6848 4.73684Z" fill="#232830"/>
<path d="M38.2176 20.5177H41.8177L34.3258 28.0237C31.6128 30.7404 27.2139 30.7404 24.499 28.0237L17.0042 20.5177H20.607L26.2989 26.2195C28.0245 27.9405 30.7959 27.9405 32.5215 26.2195L38.2176 20.5177Z" fill="white"/>
<path d="M20.593 40.5594H17.0042L24.516 33.0436C27.2188 30.3398 31.601 30.3398 34.3057 33.0436L41.8177 40.5594H38.2313L32.5125 34.839C30.7935 33.1263 28.0327 33.1263 26.3135 34.839L20.593 40.5594Z" fill="white"/>
</svg>
