<svg width="59" height="61" viewBox="0 0 59 61" fill="none" xmlns="http://www.w3.org/2000/svg">
<path d="M23.6848 5.33437C27.2282 3.2886 31.5938 3.28861 35.1371 5.33438L48.4798 13.0378C52.0232 15.0836 54.206 18.8642 54.206 22.9558V38.3626C54.206 42.4542 52.0232 46.2349 48.4798 48.2807L35.1371 55.9841C31.5938 58.0299 27.2282 58.0299 23.6848 55.9841L10.3421 48.2807C6.79871 46.2349 4.61591 42.4542 4.61591 38.3626V22.9558C4.61591 18.8642 6.79871 15.0836 10.3421 13.0378L23.6848 5.33437Z" fill="#27A17A"/>
<path fill-rule="evenodd" clip-rule="evenodd" d="M31.9352 32.6728C31.7941 32.6834 31.0657 32.7269 29.4407 32.7269C28.1483 32.7269 27.2307 32.6882 26.9088 32.6728C21.9142 32.4531 18.186 31.5838 18.186 30.5427C18.186 29.5018 21.9142 28.6335 26.9088 28.4102V31.8069C27.2354 31.8305 28.1707 31.8857 29.4631 31.8857C31.014 31.8857 31.7906 31.8211 31.9304 31.8081V28.4126C36.9145 28.6347 40.6343 29.5041 40.6343 30.5427C40.6343 31.5814 36.9157 32.4509 31.9304 32.6716L31.9352 32.6728ZM31.9352 28.0614V25.0219H38.8909V20.3867H19.9533V25.0219H26.9076V28.0603C21.255 28.3199 17.0042 29.4396 17.0042 30.7813C17.0042 32.1232 21.255 33.2417 26.9076 33.5025V43.2427H31.934V33.499C37.5738 33.2393 41.8177 32.1208 41.8177 30.7801C41.8177 29.4396 37.5772 28.3211 31.934 28.0603L31.9352 28.0614Z" fill="white"/>
</svg>
